<?xml version="1.0" standalone="no"?>
<!DOCTYPE svg PUBLIC "-//W3C//DTD SVG 20010904//EN"
 "http://www.w3.org/TR/2001/REC-SVG-20010904/DTD/svg10.dtd">
<svg version="1.0" xmlns="http://www.w3.org/2000/svg"
 width="2560.000000pt" height="2560.000000pt" viewBox="0 0 2560.000000 2560.000000"
 preserveAspectRatio="xMidYMid meet">
<metadata>
Created by potrace 1.14, written by Peter Selinger 2001-2017
</metadata>
<g transform="translate(0.000000,2560.000000) scale(0.100000,-0.100000)"
fill="#000000" stroke="none">
<path d="M0 12800 l0 -12800 12800 0 12800 0 0 12800 0 12800 -12800 0 -12800
0 0 -12800z m12085 8571 c1029 -30 1530 -73 2207 -187 1226 -206 2128 -602
2761 -1213 88 -85 265 -291 349 -406 321 -440 518 -978 583 -1590 23 -209 30
-610 16 -816 -58 -819 -313 -1531 -787 -2196 -376 -527 -865 -914 -1559 -1235
-435 -201 -900 -349 -1569 -501 l-100 -22 115 -94 c223 -184 466 -451 689
-757 191 -262 489 -720 1358 -2089 1104 -1738 1238 -1944 1475 -2260 158 -210
326 -392 487 -527 87 -72 302 -212 420 -272 229 -117 516 -194 785 -211 55 -3
133 -8 173 -11 l72 -6 0 -354 0 -354 -1356 0 -1355 0 -147 133 c-285 257 -560
546 -759 797 -194 246 -547 750 -843 1205 -181 278 -1750 2784 -1960 3130
-445 734 -694 1080 -983 1368 l-109 107 -126 -7 c-164 -10 -1015 -10 -1199 0
l-142 7 -4 -2557 c-4 -2583 -6 -2704 -42 -3127 -9 -98 -13 -181 -10 -184 5 -5
1298 61 1473 75 l72 6 0 -477 0 -476 -2425 0 -2425 0 0 354 0 355 43 5 c23 3
103 10 177 16 297 26 558 106 738 229 126 85 266 250 353 415 97 184 130 330
149 651 5 99 13 216 16 260 3 44 9 2575 13 5625 6 3940 11 5593 19 5710 6 91
19 258 28 373 9 114 14 210 11 213 -3 3 -342 -13 -754 -35 -411 -23 -758 -41
-770 -41 l-23 0 0 475 0 475 147 0 c81 0 413 5 738 11 1617 29 3182 33 3980
10z"/>
<path d="M11859 20539 c-536 -32 -858 -196 -1074 -546 -55 -91 -95 -184 -123
-288 -72 -273 -81 -695 -82 -3636 l0 -2216 183 -12 c1029 -67 1800 -21 2562
155 435 100 900 285 1211 482 294 185 489 351 679 578 472 563 705 1294 705
2209 -1 776 -148 1378 -464 1898 -134 220 -342 456 -552 623 -583 465 -1401
710 -2519 754 -275 11 -340 11 -526 -1z"/>
</g>
</svg>
